<svg style="display: none;">
  <defs>
    <!-- AI Robot Icon -->
    <g id="icon-ai-robot">
      <rect x="2" y="3" width="20" height="16" rx="3" fill="currentColor" opacity="0.1"/>
      <rect x="3" y="4" width="18" height="14" rx="2" fill="none" stroke="currentColor" stroke-width="1.5"/>
      <circle cx="8" cy="9" r="1.5" fill="currentColor"/>
      <circle cx="16" cy="9" r="1.5" fill="currentColor"/>
      <path d="M9 13 Q12 15 15 13" stroke="currentColor" stroke-width="1.5" stroke-linecap="round"/>
      <rect x="11" y="1" width="2" height="2" rx="1" fill="currentColor"/>
      <circle cx="6" cy="2" r="1" fill="currentColor"/>
      <circle cx="18" cy="2" r="1" fill="currentColor"/>
    </g>

    <!-- Gamepad Icon -->
    <g id="icon-gamepad">
      <path d="M6 7 Q4 7 4 9 L4 15 Q4 17 6 17 L18 17 Q20 17 20 15 L20 9 Q20 7 18 7 L6 7 Z" 
            fill="none" stroke="currentColor" stroke-width="1.5"/>
      <circle cx="8" cy="11" r="1" fill="currentColor"/>
      <circle cx="16" cy="11" r="1" fill="currentColor"/>
      <circle cx="10" cy="13" r="0.5" fill="currentColor"/>
      <circle cx="14" cy="9" r="0.5" fill="currentColor"/>
      <path d="M7 9 L7 13 M5 11 L9 11" stroke="currentColor" stroke-width="1" stroke-linecap="round"/>
    </g>

    <!-- Analytics Chart Icon -->
    <g id="icon-analytics">
      <path d="M3 20 L21 20 M3 20 L3 4" stroke="currentColor" stroke-width="1.5" stroke-linecap="round"/>
      <path d="M7 16 L7 20 M11 12 L11 20 M15 8 L15 20 M19 6 L19 20" 
            stroke="currentColor" stroke-width="2" stroke-linecap="round"/>
      <circle cx="7" cy="16" r="1.5" fill="currentColor"/>
      <circle cx="11" cy="12" r="1.5" fill="currentColor"/>
      <circle cx="15" cy="8" r="1.5" fill="currentColor"/>
      <circle cx="19" cy="6" r="1.5" fill="currentColor"/>
    </g>

    <!-- Community Users Icon -->
    <g id="icon-community">
      <circle cx="9" cy="7" r="3" fill="none" stroke="currentColor" stroke-width="1.5"/>
      <circle cx="15" cy="7" r="3" fill="none" stroke="currentColor" stroke-width="1.5"/>
      <path d="M3 20 Q6 16 9 16 Q12 16 15 16 Q18 16 21 20" 
            stroke="currentColor" stroke-width="1.5" stroke-linecap="round"/>
      <circle cx="12" cy="4" r="2" fill="currentColor" opacity="0.7"/>
    </g>

    <!-- Mobile App Icon -->
    <g id="icon-mobile">
      <rect x="6" y="2" width="12" height="20" rx="3" fill="none" stroke="currentColor" stroke-width="1.5"/>
      <circle cx="12" cy="19" r="1" fill="currentColor"/>
      <path d="M9 5 L15 5" stroke="currentColor" stroke-width="1" stroke-linecap="round"/>
      <rect x="8" y="7" width="8" height="9" rx="1" fill="currentColor" opacity="0.1"/>
    </g>

    <!-- Security Shield Icon -->
    <g id="icon-security">
      <path d="M12 2 L4 6 L4 12 Q4 16 12 22 Q20 16 20 12 L20 6 L12 2 Z" 
            fill="none" stroke="currentColor" stroke-width="1.5"/>
      <path d="M9 12 L11 14 L15 9" stroke="currentColor" stroke-width="1.5" 
            stroke-linecap="round" stroke-linejoin="round"/>
      <circle cx="12" cy="8" r="2" fill="currentColor" opacity="0.2"/>
    </g>

    <!-- Star Rating Icon -->
    <g id="icon-star">
      <path d="M12 2 L14.4 8.8 L22 8.8 L16.8 13.2 L19.2 20 L12 15.6 L4.8 20 L7.2 13.2 L2 8.8 L9.6 8.8 Z" 
            fill="currentColor"/>
    </g>

    <!-- Check Mark Icon -->
    <g id="icon-check">
      <circle cx="12" cy="12" r="10" fill="currentColor" opacity="0.1"/>
      <path d="M8 12 L11 15 L16 9" stroke="currentColor" stroke-width="2" 
            stroke-linecap="round" stroke-linejoin="round"/>
    </g>

    <!-- Arrow Right Icon -->
    <g id="icon-arrow-right">
      <path d="M5 12 L19 12 M14 7 L19 12 L14 17" stroke="currentColor" stroke-width="1.5" 
            stroke-linecap="round" stroke-linejoin="round"/>
    </g>

    <!-- Play Button Icon -->
    <g id="icon-play">
      <circle cx="12" cy="12" r="10" fill="currentColor" opacity="0.1"/>
      <path d="M10 8 L16 12 L10 16 Z" fill="currentColor"/>
    </g>

    <!-- Rocket Launch Icon -->
    <g id="icon-rocket">
      <path d="M12 2 Q16 6 16 12 L20 16 L16 20 L12 16 Q6 16 2 12 Q6 6 12 2 Z" 
            fill="none" stroke="currentColor" stroke-width="1.5"/>
      <circle cx="12" cy="8" r="2" fill="currentColor" opacity="0.3"/>
      <path d="M8 16 L4 20 M8 16 L12 20" stroke="currentColor" stroke-width="1.5" stroke-linecap="round"/>
    </g>

    <!-- Document Icon -->
    <g id="icon-document">
      <path d="M14 2 L6 2 Q4 2 4 4 L4 20 Q4 22 6 22 L18 22 Q20 22 20 20 L20 8 L14 2 Z" 
            fill="none" stroke="currentColor" stroke-width="1.5"/>
      <path d="M14 2 L14 8 L20 8" stroke="currentColor" stroke-width="1.5" stroke-linecap="round"/>
      <path d="M8 12 L16 12 M8 16 L16 16" stroke="currentColor" stroke-width="1" stroke-linecap="round"/>
    </g>
  </defs>
</svg>