<svg width="48" height="48" viewBox="0 0 48 48" fill="none" xmlns="http://www.w3.org/2000/svg">
  <defs>
    <linearGradient id="logoGradientLarge" x1="0%" y1="0%" x2="100%" y2="100%">
      <stop offset="0%" style="stop-color:#6366f1;stop-opacity:1" />
      <stop offset="35%" style="stop-color:#8b5cf6;stop-opacity:1" />
      <stop offset="100%" style="stop-color:#06b6d4;stop-opacity:1" />
    </linearGradient>
    <filter id="shadow" x="-50%" y="-50%" width="200%" height="200%">
      <feDropShadow dx="0" dy="2" stdDeviation="3" flood-color="#000" flood-opacity="0.1"/>
    </filter>
  </defs>
  
  <!-- Основной фон с тенью -->
  <rect width="48" height="48" rx="12" fill="url(#logoGradientLarge)" filter="url(#shadow)"/>
  
  <!-- Книга (основа образования) -->
  <rect x="12" y="16" width="24" height="18" rx="2" fill="white" opacity="0.95"/>
  <rect x="13" y="17" width="22" height="16" rx="1" fill="none" stroke="white" stroke-width="1" opacity="0.8"/>
  
  <!-- Центральная линия книги -->
  <line x1="24" y1="17" x2="24" y2="33" stroke="url(#logoGradientLarge)" stroke-width="0.5" opacity="0.6"/>
  
  <!-- Стилизованная буква T -->
  <g stroke="url(#logoGradientLarge)" stroke-width="3" stroke-linecap="round" stroke-linejoin="round">
    <path d="M16 22 L32 22"/>
    <path d="M24 22 L24 30"/>
  </g>
  
  <!-- ИИ символ (нейронная сеть) -->
  <g fill="white" opacity="0.9">
    <circle cx="34" cy="14" r="4"/>
    <circle cx="30" cy="11" r="1.5"/>
    <circle cx="38" cy="11" r="1.5"/>
    <circle cx="34" cy="8" r="1"/>
    <path d="M32.5 12.5 L31.5 11.5 M35.5 12.5 L36.5 11.5 M34 10 L34 9" 
          stroke="url(#logoGradientLarge)" stroke-width="1.5" stroke-linecap="round"/>
  </g>
  
  <!-- Точки обучения -->
  <g fill="white" opacity="0.7">
    <circle cx="16" cy="10" r="1.5"/>
    <circle cx="20" cy="8" r="1"/>
    <circle cx="24" cy="9" r="1.2"/>
    <circle cx="28" cy="7" r="1"/>
  </g>
  
  <!-- Градиентная подсветка -->
  <rect x="12" y="16" width="24" height="3" rx="1" fill="url(#logoGradientLarge)" opacity="0.2"/>
</svg>