<svg xmlns="http://www.w3.org/2000/svg" style="display: none;">
  <!-- Profile & User Icons -->
  <symbol id="icon-profile" viewBox="0 0 24 24" fill="none" stroke="currentColor" stroke-width="2">
    <circle cx="12" cy="8" r="4"/>
    <path d="M20 21a8 8 0 0 0-16 0"/>
    <circle cx="18" cy="6" r="2" fill="currentColor"/>
  </symbol>

  <symbol id="icon-avatar-edit" viewBox="0 0 24 24" fill="none" stroke="currentColor" stroke-width="2">
    <circle cx="12" cy="8" r="4"/>
    <path d="M20 21a8 8 0 0 0-16 0"/>
    <path d="m15 5 3 3-8 8-4 1 1-4 8-8z"/>
  </symbol>

  <symbol id="icon-student" viewBox="0 0 24 24" fill="none" stroke="currentColor" stroke-width="2">
    <path d="M22 10v6M2 10l10-5 10 5-10 5z"/>
    <path d="M6 12v5c3 3 9 3 12 0v-5"/>
    <circle cx="12" cy="8" r="2"/>
  </symbol>

  <symbol id="icon-teacher" viewBox="0 0 24 24" fill="none" stroke="currentColor" stroke-width="2">
    <path d="M2 3h6a4 4 0 0 1 4 4v14a3 3 0 0 0-3-3H2z"/>
    <path d="M22 3h-6a4 4 0 0 0-4 4v14a3 3 0 0 1 3-3h7z"/>
    <circle cx="12" cy="8" r="2"/>
    <path d="M12 10v2"/>
  </symbol>

  <!-- Dashboard Icons -->
  <symbol id="icon-dashboard" viewBox="0 0 24 24" fill="none" stroke="currentColor" stroke-width="2">
    <rect x="3" y="3" width="7" height="7"/>
    <rect x="14" y="3" width="7" height="7"/>
    <rect x="14" y="14" width="7" height="7"/>
    <rect x="3" y="14" width="7" height="7"/>
    <circle cx="6.5" cy="6.5" r="1" fill="currentColor"/>
    <circle cx="17.5" cy="6.5" r="1" fill="currentColor"/>
    <circle cx="17.5" cy="17.5" r="1" fill="currentColor"/>
    <circle cx="6.5" cy="17.5" r="1" fill="currentColor"/>
  </symbol>

  <symbol id="icon-analytics" viewBox="0 0 24 24" fill="none" stroke="currentColor" stroke-width="2">
    <path d="M3 3v18h18"/>
    <path d="M7 12l3-3 3 3 5-5"/>
    <circle cx="7" cy="12" r="1" fill="currentColor"/>
    <circle cx="10" cy="9" r="1" fill="currentColor"/>
    <circle cx="13" cy="12" r="1" fill="currentColor"/>
    <circle cx="18" cy="7" r="1" fill="currentColor"/>
  </symbol>

  <!-- Learning Icons -->
  <symbol id="icon-materials" viewBox="0 0 24 24" fill="none" stroke="currentColor" stroke-width="2">
    <path d="M14 2H6a2 2 0 0 0-2 2v16a2 2 0 0 0 2 2h12a2 2 0 0 0 2-2V8z"/>
    <polyline points="14,2 14,8 20,8"/>
    <line x1="16" y1="13" x2="8" y2="13"/>
    <line x1="16" y1="17" x2="8" y2="17"/>
    <polyline points="10,9 9,9 8,9"/>
    <circle cx="12" cy="15" r="1" fill="currentColor"/>
  </symbol>

  <symbol id="icon-assignments" viewBox="0 0 24 24" fill="none" stroke="currentColor" stroke-width="2">
    <path d="M16 4h2a2 2 0 0 1 2 2v14a2 2 0 0 1-2 2H6a2 2 0 0 1-2-2V6a2 2 0 0 1 2-2h2"/>
    <rect x="8" y="2" width="8" height="4" rx="1" ry="1"/>
    <path d="M9 14l2 2 4-4"/>
    <circle cx="15" cy="9" r="1" fill="currentColor"/>
  </symbol>

  <symbol id="icon-grades" viewBox="0 0 24 24" fill="none" stroke="currentColor" stroke-width="2">
    <polygon points="12,2 15.09,8.26 22,9.27 17,14.14 18.18,21.02 12,17.77 5.82,21.02 7,14.14 2,9.27 8.91,8.26"/>
    <circle cx="12" cy="12" r="3"/>
    <path d="M10 10l2 2 2-2"/>
  </symbol>

  <symbol id="icon-schedule" viewBox="0 0 24 24" fill="none" stroke="currentColor" stroke-width="2">
    <rect x="3" y="4" width="18" height="18" rx="2" ry="2"/>
    <line x1="16" y1="2" x2="16" y2="6"/>
    <line x1="8" y1="2" x2="8" y2="6"/>
    <line x1="3" y1="10" x2="21" y2="10"/>
    <circle cx="8" cy="14" r="1" fill="currentColor"/>
    <circle cx="12" cy="14" r="1" fill="currentColor"/>
    <circle cx="16" cy="14" r="1" fill="currentColor"/>
    <circle cx="8" cy="18" r="1" fill="currentColor"/>
  </symbol>

  <!-- AI & Premium Icons -->
  <symbol id="icon-ai-assistant" viewBox="0 0 24 24" fill="none" stroke="currentColor" stroke-width="2">
    <path d="M12 2a3 3 0 0 0-3 3c0 1.5 1.5 3 3 3s3-1.5 3-3a3 3 0 0 0-3-3z"/>
    <path d="M19 13v6a2 2 0 0 1-2 2H7a2 2 0 0 1-2-2v-6"/>
    <path d="M5 13l7-7 7 7"/>
    <circle cx="12" cy="12" r="2"/>
    <path d="M12 10v4"/>
    <path d="M10 12h4"/>
  </symbol>

  <symbol id="icon-premium" viewBox="0 0 24 24" fill="none" stroke="currentColor" stroke-width="2">
    <polygon points="12,2 15.09,8.26 22,9.27 17,14.14 18.18,21.02 12,17.77 5.82,21.02 7,14.14 2,9.27 8.91,8.26"/>
    <circle cx="12" cy="12" r="4"/>
    <path d="M12 8v8"/>
    <path d="M8 12h8"/>
  </symbol>

  <symbol id="icon-deepseek" viewBox="0 0 24 24" fill="none" stroke="currentColor" stroke-width="2">
    <circle cx="12" cy="12" r="10"/>
    <path d="M8 12l2 2 4-4"/>
    <path d="M12 6v2"/>
    <path d="M12 16v2"/>
    <path d="M6 12h2"/>
    <path d="M16 12h2"/>
    <circle cx="12" cy="12" r="3" fill="currentColor" opacity="0.3"/>
  </symbol>

  <!-- Admin Icons -->
  <symbol id="icon-admin" viewBox="0 0 24 24" fill="none" stroke="currentColor" stroke-width="2">
    <path d="M12 1L3 5v6c0 5.55 3.84 10.74 9 12 5.16-1.26 9-6.45 9-12V5l-9-4z"/>
    <path d="M9 12l2 2 4-4"/>
    <circle cx="12" cy="8" r="2"/>
  </symbol>

  <symbol id="icon-users-manage" viewBox="0 0 24 24" fill="none" stroke="currentColor" stroke-width="2">
    <path d="M17 21v-2a4 4 0 0 0-4-4H5a4 4 0 0 0-4 4v2"/>
    <circle cx="9" cy="7" r="4"/>
    <path d="M23 21v-2a4 4 0 0 0-3-3.87"/>
    <path d="M16 3.13a4 4 0 0 1 0 7.75"/>
    <circle cx="19" cy="12" r="1" fill="currentColor"/>
  </symbol>

  <symbol id="icon-schools" viewBox="0 0 24 24" fill="none" stroke="currentColor" stroke-width="2">
    <path d="M3 21h18"/>
    <path d="M5 21V7l8-4v18"/>
    <path d="M19 21V11l-6-4"/>
    <path d="M9 9v.01"/>
    <path d="M9 12v.01"/>
    <path d="M9 15v.01"/>
    <path d="M9 18v.01"/>
    <circle cx="15" cy="15" r="1" fill="currentColor"/>
  </symbol>

  <!-- File & Upload Icons -->
  <symbol id="icon-upload" viewBox="0 0 24 24" fill="none" stroke="currentColor" stroke-width="2">
    <path d="M21 15v4a2 2 0 0 1-2 2H5a2 2 0 0 1-2-2v-4"/>
    <polyline points="7,10 12,5 17,10"/>
    <line x1="12" y1="5" x2="12" y2="15"/>
    <circle cx="12" cy="8" r="1" fill="currentColor"/>
  </symbol>

  <symbol id="icon-pdf" viewBox="0 0 24 24" fill="none" stroke="currentColor" stroke-width="2">
    <path d="M14 2H6a2 2 0 0 0-2 2v16a2 2 0 0 0 2 2h12a2 2 0 0 0 2-2V8z"/>
    <polyline points="14,2 14,8 20,8"/>
    <path d="M8 13h2a2 2 0 0 1 0 4H8"/>
    <path d="M8 13v4"/>
    <path d="M14 13v4"/>
    <path d="M14 15h2"/>
  </symbol>

  <symbol id="icon-image" viewBox="0 0 24 24" fill="none" stroke="currentColor" stroke-width="2">
    <rect x="3" y="3" width="18" height="18" rx="2" ry="2"/>
    <circle cx="8.5" cy="8.5" r="1.5"/>
    <polyline points="21,15 16,10 5,21"/>
    <circle cx="8.5" cy="8.5" r="1" fill="currentColor"/>
  </symbol>

  <symbol id="icon-video" viewBox="0 0 24 24" fill="none" stroke="currentColor" stroke-width="2">
    <polygon points="23,7 16,12 23,17"/>
    <rect x="1" y="5" width="15" height="14" rx="2" ry="2"/>
    <circle cx="8" cy="12" r="2"/>
    <path d="M6 12h4"/>
  </symbol>

  <!-- Navigation Icons -->
  <symbol id="icon-home" viewBox="0 0 24 24" fill="none" stroke="currentColor" stroke-width="2">
    <path d="M3 9l9-7 9 7v11a2 2 0 0 1-2 2H5a2 2 0 0 1-2-2z"/>
    <polyline points="9,22 9,12 15,12 15,22"/>
    <circle cx="12" cy="8" r="1" fill="currentColor"/>
  </symbol>

  <symbol id="icon-settings" viewBox="0 0 24 24" fill="none" stroke="currentColor" stroke-width="2">
    <circle cx="12" cy="12" r="3"/>
    <path d="M19.4 15a1.65 1.65 0 0 0 .33 1.82l.06.06a2 2 0 0 1 0 2.83 2 2 0 0 1-2.83 0l-.06-.06a1.65 1.65 0 0 0-1.82-.33 1.65 1.65 0 0 0-1 1.51V21a2 2 0 0 1-2 2 2 2 0 0 1-2-2v-.09A1.65 1.65 0 0 0 9 19.4a1.65 1.65 0 0 0-1.82.33l-.06.06a2 2 0 0 1-2.83 0 2 2 0 0 1 0-2.83l.06-.06a1.65 1.65 0 0 0 .33-1.82 1.65 1.65 0 0 0-1.51-1H3a2 2 0 0 1-2-2 2 2 0 0 1 2-2h.09A1.65 1.65 0 0 0 4.6 9a1.65 1.65 0 0 0-.33-1.82l-.06-.06a2 2 0 0 1 0-2.83 2 2 0 0 1 2.83 0l.06.06a1.65 1.65 0 0 0 1.82.33H9a1.65 1.65 0 0 0 1 1.51V3a2 2 0 0 1 2-2 2 2 0 0 1 2 2v.09a1.65 1.65 0 0 0 1 1.51 1.65 1.65 0 0 0 1.82-.33l.06-.06a2 2 0 0 1 2.83 0 2 2 0 0 1 0 2.83l-.06.06a1.65 1.65 0 0 0-.33 1.82V9a1.65 1.65 0 0 0 1.51 1H21a2 2 0 0 1 2 2 2 2 0 0 1-2 2h-.09a1.65 1.65 0 0 0-1.51 1z"/>
  </symbol>

  <symbol id="icon-logout" viewBox="0 0 24 24" fill="none" stroke="currentColor" stroke-width="2">
    <path d="M9 21H5a2 2 0 0 1-2-2V5a2 2 0 0 1 2-2h4"/>
    <polyline points="16,17 21,12 16,7"/>
    <line x1="21" y1="12" x2="9" y2="12"/>
    <circle cx="12" cy="12" r="1" fill="currentColor"/>
  </symbol>

  <!-- Subject Icons -->
  <symbol id="icon-history" viewBox="0 0 24 24" fill="none" stroke="currentColor" stroke-width="2">
    <circle cx="12" cy="12" r="10"/>
    <polyline points="12,6 12,12 16,14"/>
    <path d="M4 12a8 8 0 0 1 8-8V2l3 3-3 3V6a6 6 0 1 0 6 6"/>
  </symbol>

  <symbol id="icon-social-studies" viewBox="0 0 24 24" fill="none" stroke="currentColor" stroke-width="2">
    <path d="M17 21v-2a4 4 0 0 0-4-4H5a4 4 0 0 0-4 4v2"/>
    <circle cx="9" cy="7" r="4"/>
    <path d="M23 21v-2a4 4 0 0 0-3-3.87"/>
    <path d="M16 3.13a4 4 0 0 1 0 7.75"/>
    <circle cx="12" cy="12" r="8" stroke-dasharray="2 2"/>
  </symbol>

  <symbol id="icon-economics" viewBox="0 0 24 24" fill="none" stroke="currentColor" stroke-width="2">
    <line x1="12" y1="1" x2="12" y2="23"/>
    <path d="M17 5H9.5a3.5 3.5 0 0 0 0 7h5a3.5 3.5 0 0 1 0 7H6"/>
    <circle cx="12" cy="8" r="1" fill="currentColor"/>
    <circle cx="12" cy="16" r="1" fill="currentColor"/>
  </symbol>

  <symbol id="icon-law" viewBox="0 0 24 24" fill="none" stroke="currentColor" stroke-width="2">
    <path d="M9 12l2 2 4-4"/>
    <path d="M21 12c.552 0 1-.448 1-1V5c0-.552-.448-1-1-1H3c-.552 0-1 .448-1 1v6c0 .552.448 1 1 1"/>
    <path d="M3 12v7c0 .552.448 1 1 1h16c.552 0 1-.448 1-1v-7"/>
    <rect x="8" y="8" width="8" height="2"/>
  </symbol>

  <symbol id="icon-philosophy" viewBox="0 0 24 24" fill="none" stroke="currentColor" stroke-width="2">
    <circle cx="12" cy="12" r="10"/>
    <path d="M8 12h8"/>
    <path d="M12 8v8"/>
    <circle cx="12" cy="12" r="4"/>
    <circle cx="12" cy="12" r="1" fill="currentColor"/>
  </symbol>

  <symbol id="icon-political-science" viewBox="0 0 24 24" fill="none" stroke="currentColor" stroke-width="2">
    <path d="M12 2l3.09 6.26L22 9.27l-5 4.87 1.18 6.88L12 17.77l-6.18 3.25L7 14.14 2 9.27l6.91-1.01L12 2z"/>
    <circle cx="12" cy="12" r="3"/>
    <path d="M12 9v6"/>
    <path d="M9 12h6"/>
  </symbol>

  <!-- Status & Action Icons -->
  <symbol id="icon-success" viewBox="0 0 24 24" fill="none" stroke="currentColor" stroke-width="2">
    <circle cx="12" cy="12" r="10"/>
    <path d="M9 12l2 2 4-4"/>
  </symbol>

  <symbol id="icon-warning" viewBox="0 0 24 24" fill="none" stroke="currentColor" stroke-width="2">
    <path d="M10.29 3.86L1.82 18a2 2 0 0 0 1.71 3h16.94a2 2 0 0 0 1.71-3L13.71 3.86a2 2 0 0 0-3.42 0z"/>
    <line x1="12" y1="9" x2="12" y2="13"/>
    <line x1="12" y1="17" x2="12.01" y2="17"/>
  </symbol>

  <symbol id="icon-error" viewBox="0 0 24 24" fill="none" stroke="currentColor" stroke-width="2">
    <circle cx="12" cy="12" r="10"/>
    <line x1="15" y1="9" x2="9" y2="15"/>
    <line x1="9" y1="9" x2="15" y2="15"/>
  </symbol>

  <symbol id="icon-info" viewBox="0 0 24 24" fill="none" stroke="currentColor" stroke-width="2">
    <circle cx="12" cy="12" r="10"/>
    <line x1="12" y1="16" x2="12" y2="12"/>
    <line x1="12" y1="8" x2="12.01" y2="8"/>
  </symbol>

  <!-- Utility Icons -->
  <symbol id="icon-search" viewBox="0 0 24 24" fill="none" stroke="currentColor" stroke-width="2">
    <circle cx="11" cy="11" r="8"/>
    <path d="m21 21-4.35-4.35"/>
    <circle cx="11" cy="11" r="3"/>
  </symbol>

  <symbol id="icon-filter" viewBox="0 0 24 24" fill="none" stroke="currentColor" stroke-width="2">
    <polygon points="22,3 2,3 10,12.46 10,19 14,21 14,12.46"/>
    <circle cx="12" cy="8" r="1" fill="currentColor"/>
  </symbol>

  <symbol id="icon-sort" viewBox="0 0 24 24" fill="none" stroke="currentColor" stroke-width="2">
    <path d="M3 6h18"/>
    <path d="M6 12h12"/>
    <path d="M9 18h6"/>
    <circle cx="21" cy="6" r="1" fill="currentColor"/>
    <circle cx="18" cy="12" r="1" fill="currentColor"/>
    <circle cx="15" cy="18" r="1" fill="currentColor"/>
  </symbol>

  <symbol id="icon-edit" viewBox="0 0 24 24" fill="none" stroke="currentColor" stroke-width="2">
    <path d="M11 4H4a2 2 0 0 0-2 2v14a2 2 0 0 0 2 2h14a2 2 0 0 0 2-2v-7"/>
    <path d="M18.5 2.5a2.121 2.121 0 0 1 3 3L12 15l-4 1 1-4 9.5-9.5z"/>
    <circle cx="15" cy="6" r="1" fill="currentColor"/>
  </symbol>

  <symbol id="icon-delete" viewBox="0 0 24 24" fill="none" stroke="currentColor" stroke-width="2">
    <polyline points="3,6 5,6 21,6"/>
    <path d="M19 6v14a2 2 0 0 1-2 2H7a2 2 0 0 1-2-2V6m3 0V4a2 2 0 0 1 2-2h4a2 2 0 0 1 2 2v2"/>
    <line x1="10" y1="11" x2="10" y2="17"/>
    <line x1="14" y1="11" x2="14" y2="17"/>
  </symbol>

  <symbol id="icon-copy" viewBox="0 0 24 24" fill="none" stroke="currentColor" stroke-width="2">
    <rect x="9" y="9" width="13" height="13" rx="2" ry="2"/>
    <path d="M5 15H4a2 2 0 0 1-2-2V4a2 2 0 0 1 2-2h9a2 2 0 0 1 2 2v1"/>
    <circle cx="16" cy="16" r="1" fill="currentColor"/>
  </symbol>

  <symbol id="icon-download" viewBox="0 0 24 24" fill="none" stroke="currentColor" stroke-width="2">
    <path d="M21 15v4a2 2 0 0 1-2 2H5a2 2 0 0 1-2-2v-4"/>
    <polyline points="7,10 12,15 17,10"/>
    <line x1="12" y1="15" x2="12" y2="3"/>
    <circle cx="12" cy="12" r="1" fill="currentColor"/>
  </symbol>

  <!-- Communication Icons -->
  <symbol id="icon-chat" viewBox="0 0 24 24" fill="none" stroke="currentColor" stroke-width="2">
    <path d="M21 15a2 2 0 0 1-2 2H7l-4 4V5a2 2 0 0 1 2-2h14a2 2 0 0 1 2 2z"/>
    <circle cx="9" cy="10" r="1" fill="currentColor"/>
    <circle cx="15" cy="10" r="1" fill="currentColor"/>
    <path d="M9 14s1.5 2 3 2 3-2 3-2"/>
  </symbol>

  <symbol id="icon-notification" viewBox="0 0 24 24" fill="none" stroke="currentColor" stroke-width="2">
    <path d="M18 8A6 6 0 0 0 6 8c0 7-3 9-3 9h18s-3-2-3-9"/>
    <path d="M13.73 21a2 2 0 0 1-3.46 0"/>
    <circle cx="18" cy="6" r="2" fill="currentColor"/>
  </symbol>

  <symbol id="icon-mail" viewBox="0 0 24 24" fill="none" stroke="currentColor" stroke-width="2">
    <path d="M4 4h16c1.1 0 2 .9 2 2v12c0 1.1-.9 2-2 2H4c-1.1 0-2-.9-2-2V6c0-1.1.9-2 2-2z"/>
    <polyline points="22,6 12,13 2,6"/>
    <circle cx="6" cy="8" r="1" fill="currentColor"/>
  </symbol>
</svg>