<?xml version="1.0" encoding="UTF-8"?>
<svg width="200" height="200" viewBox="0 0 200 200" fill="none" xmlns="http://www.w3.org/2000/svg">
  <!-- Фон -->
  <circle cx="100" cy="100" r="90" fill="url(#gradient)" />
  
  <!-- Книга (символ образования) -->
  <path d="M60 50C60 45 65 40 70 40H130C135 40 140 45 140 50V150C140 155 135 160 130 160H70C65 160 60 155 60 150V50Z" fill="white" />
  
  <!-- Линии текста в книге -->
  <line x1="75" y1="70" x2="125" y2="70" stroke="#4F46E5" stroke-width="3" />
  <line x1="75" y1="85" x2="125" y2="85" stroke="#4F46E5" stroke-width="3" />
  <line x1="75" y1="100" x2="125" y2="100" stroke="#4F46E5" stroke-width="3" />
  <line x1="75" y1="115" x2="125" y2="115" stroke="#4F46E5" stroke-width="3" />
  <line x1="75" y1="130" x2="125" y2="130" stroke="#4F46E5" stroke-width="3" />
  
  <!-- Часы (символ истории) -->
  <circle cx="100" cy="100" r="30" stroke="#4F46E5" stroke-width="3" fill="none" />
  <line x1="100" y1="100" x2="100" y2="85" stroke="#4F46E5" stroke-width="3" />
  <line x1="100" y1="100" x2="115" y2="100" stroke="#4F46E5" stroke-width="3" />
  
  <!-- Градиент -->
  <defs>
    <linearGradient id="gradient" x1="0" y1="0" x2="200" y2="200" gradientUnits="userSpaceOnUse">
      <stop offset="0%" stop-color="#4F46E5" />
      <stop offset="100%" stop-color="#7C3AED" />
    </linearGradient>
  </defs>
</svg> 